<?xml version="1.0" encoding="UTF-8" standalone="no"?>
<!-- Created with Inkscape (http://www.inkscape.org/) -->

<svg
   width="191.82292mm"
   height="65.881248mm"
   viewBox="0 0 191.82292 65.881248"
   version="1.1"
   id="svg1"
   xml:space="preserve"
   inkscape:version="1.3.1 (91b66b0, 2023-11-16)"
   sodipodi:docname="logo_vector.svg"
   xmlns:inkscape="http://www.inkscape.org/namespaces/inkscape"
   xmlns:sodipodi="http://sodipodi.sourceforge.net/DTD/sodipodi-0.dtd"
   xmlns="http://www.w3.org/2000/svg"
   xmlns:svg="http://www.w3.org/2000/svg"><sodipodi:namedview
     id="namedview1"
     pagecolor="#ffffff"
     bordercolor="#000000"
     borderopacity="0.25"
     inkscape:showpageshadow="2"
     inkscape:pageopacity="0.0"
     inkscape:pagecheckerboard="0"
     inkscape:deskcolor="#d1d1d1"
     inkscape:document-units="mm"
     inkscape:zoom="1.0716962"
     inkscape:cx="390.03593"
     inkscape:cy="104.97378"
     inkscape:window-width="1760"
     inkscape:window-height="1237"
     inkscape:window-x="491"
     inkscape:window-y="94"
     inkscape:window-maximized="0"
     inkscape:current-layer="layer1" /><defs
     id="defs1" /><g
     inkscape:label="Layer 1"
     inkscape:groupmode="layer"
     id="layer1"
     style="display:inline"
     transform="translate(-9.0139201,-115.55935)"><rect
       style="display:inline;opacity:1;fill:#ffffff;fill-opacity:1;stroke:#ffffff;stroke-width:0.769173;stroke-linecap:round;stroke-linejoin:miter;stroke-dasharray:none;stroke-opacity:1"
       id="rect1"
       width="190.98247"
       height="64.971344"
       x="9.2981491"
       y="115.95706" /><path
       style="font-size:40.5694px;font-family:Roboto;-inkscape-font-specification:Roboto;fill:#29619b;stroke:#29619b;stroke-width:0.265;stroke-linecap:round;stroke-linejoin:round"
       d="m 112.69747,162.37048 h -3.82319 L 94.354079,140.14447 v 22.22601 h -3.82319 v -28.8423 h 3.82319 l 14.559821,22.32505 v -22.32505 h 3.78357 z m 19.41309,0 q -0.31695,-0.63389 -0.51504,-2.25825 -2.5554,2.65444 -6.10126,2.65444 -3.16948,0 -5.20984,-1.78284 -2.02054,-1.80264 -2.02054,-4.55613 0,-3.34777 2.53558,-5.19003 2.5554,-1.86207 7.17096,-1.86207 h 3.56567 v -1.68379 q 0,-1.9215 -1.14894,-3.05063 -1.14893,-1.14894 -3.38738,-1.14894 -1.96112,0 -3.28834,0.99047 -1.32722,0.99046 -1.32722,2.39692 h -3.68453 q 0,-1.60455 1.12913,-3.09025 1.14894,-1.5055 3.09025,-2.37711 1.96112,-0.87161 4.29861,-0.87161 3.70434,0 5.80412,1.86207 2.09978,1.84226 2.17902,5.09099 v 9.86502 q 0,2.95158 0.75275,4.69479 v 0.31695 z m -6.08145,-2.7931 q 1.72341,0 3.26853,-0.89142 1.54513,-0.89142 2.23845,-2.31769 v -4.39766 h -2.87234 q -6.73516,0 -6.73516,3.94205 0,1.72341 1.14894,2.69406 1.14894,0.97066 2.95158,0.97066 z m 19.88852,-23.83057 v 5.19003 h 4.00147 v 2.83273 h -4.00147 v 13.29203 q 0,1.2876 0.53485,1.94131 0.53485,0.63389 1.82245,0.63389 0.6339,0 1.74322,-0.23771 v 2.97139 q -1.44608,0.39619 -2.81292,0.39619 -2.45635,0 -3.70433,-1.4857 -1.24799,-1.48569 -1.24799,-4.21937 v -13.29203 h -3.90242 v -2.83273 h 3.90242 v -5.19003 z m 16.8775,24.02866 q 1.96112,0 3.42701,-1.18856 1.46588,-1.18856 1.62436,-2.97139 h 3.46662 q -0.0991,1.84226 -1.26779,3.50624 -1.16875,1.66398 -3.12987,2.65445 -1.94131,0.99046 -4.12033,0.99046 -4.37785,0 -6.97286,-2.91196 -2.57521,-2.93178 -2.57521,-8.00295 v -0.61409 q 0,-3.12987 1.14894,-5.56641 1.14894,-2.43654 3.28834,-3.78357 2.15921,-1.34703 5.09098,-1.34703 3.60529,0 5.9824,2.15921 2.39693,2.15921 2.5554,5.60603 h -3.46662 q -0.15848,-2.07998 -1.58474,-3.4072 -1.40646,-1.34703 -3.48644,-1.34703 -2.79311,0 -4.33823,2.02055 -1.52531,2.00073 -1.52531,5.80411 v 0.69333 q 0,3.70433 1.52531,5.70507 1.52532,2.00074 4.35804,2.00074 z m 16.30304,-16.24361 q 2.43654,-2.9912 6.33897,-2.9912 6.79458,0 6.85401,7.66619 v 14.16363 h -3.66472 v -14.18344 q -0.0198,-2.31768 -1.0697,-3.427 -1.03008,-1.10932 -3.22891,-1.10932 -1.78283,0 -3.12987,0.95084 -1.34703,0.95085 -2.09978,2.49597 v 15.27295 h -3.66471 v -30.42705 h 3.66471 z"
       id="text1"
       aria-label="Natch" /><path
       id="path1"
       style="display:inline;opacity:1;fill:#29619b;fill-opacity:1"
       d="m 9.0139201,115.55935 v 32.94063 32.94062 h 95.9114599 95.91146 v -32.94062 -32.94063 h -95.91146 z m 74.3479169,2.64584 H 140.77642 198.191 v 30.55937 30.55938 H 140.77642 83.361837 v -30.55938 z m -7.522022,8.79429 c 0.0417,0.0417 -0.970025,2.51496 -2.248441,5.49631 l -2.301054,5.09407 c 0,0 1.272963,1.15883 1.803287,1.83182 0.857666,1.08839 1.701782,2.2346 2.198438,3.52825 0.756736,1.97108 1.346339,4.1384 1.10846,6.23631 -0.232094,2.04689 -1.358764,3.92018 -2.41639,5.68803 -0.262747,0.43918 -0.961182,1.19734 -0.961182,1.19734 l 0.765328,0.97669 c 1.211135,1.54532 1.422764,2.05998 0.992704,2.4169 -0.647736,0.53759 -2.130049,0.60998 -3.788916,0.185 l -1.613855,-0.41341 -2.334741,1.17151 c -2.436126,1.22258 -5.856703,2.32014 -8.6403,2.77192 -3.383062,0.54909 -7.839275,0.32951 -14.319539,-0.70487 -4.031621,-0.64353 -6.096399,-1.72028 -9.197005,-1.51843 -1.462506,0.0952 -2.951878,0.51855 -4.208603,1.27262 -2.665839,1.59959 -4.782206,4.12554 -6.582836,6.60718 -1.99729,2.7528 -2.469931,2.67937 -3.30109,-0.51159 -0.217307,-0.8343 -0.463547,-1.70031 -0.502157,-1.72901 -0.03861,-0.0287 -1.104797,-0.0982 -2.414461,-0.34994 -2.627323,-0.50509 -3.571875,-0.96267 -3.571875,-1.73012 0,-0.71837 0.81965,-1.20895 3.387907,-2.02675 1.230522,-0.39183 2.969874,-0.99985 3.569224,-1.45559 1.470131,-1.11815 3.349707,-4.22722 5.742869,-8.61615 4.517225,-8.28425 8.709236,-13.61054 12.939778,-16.44034 4.348753,-2.90887 8.438022,-3.9314 14.655953,-3.66489 4.4014,0.18866 7.489654,0.82066 10.656197,2.18074 1.223591,0.52555 2.178908,0.98819 2.292336,0.93929 0.113427,-0.0489 1.166346,-1.05452 2.170441,-2.14593 2.843676,-3.09095 6.035893,-6.37056 6.119523,-6.28696 z m -14.856457,18.66036 c -0.605385,0 -1.002651,0.95289 -0.463021,1.5074 0.434053,0.44614 1.26196,-0.12186 1.25057,-0.74052 -0.01046,-0.56797 -0.453446,-0.76688 -0.787549,-0.76688 z m 12.674162,0.10181 c -0.147299,-5.6e-4 -0.292845,0.0339 -0.372588,0.0832 -0.395264,0.24429 -0.386127,0.96173 -0.03772,1.22215 0.189144,0.1411 0.620174,0.17866 0.807702,-0.0139 0.270229,-0.27833 0.253894,-0.88316 -0.01395,-1.16375 -0.08717,-0.0913 -0.236152,-0.12709 -0.383439,-0.12764 z"
       sodipodi:nodetypes="ccccccccccccccccccsccaaasccscccssaacsssssccssssssscssccccscc" /><path
       style="display:inline;fill:none;fill-rule:nonzero;stroke:#29619b;stroke-width:0.765;stroke-linecap:round;stroke-linejoin:round;stroke-dasharray:none;stroke-opacity:1"
       d="m 64.529549,151.41346 c 0,0 0.198424,0.80895 0.917244,1.30369 0.769942,0.52992 2.268202,0.41239 2.744375,0.25532 0.495539,-0.16346 1.406693,-0.67895 1.527876,-1.62433"
       id="path2"
       sodipodi:nodetypes="cssc" /><path
       style="display:inline;opacity:1;fill:none;fill-rule:nonzero;stroke:#29619b;stroke-width:0.765;stroke-linecap:round;stroke-linejoin:round;stroke-dasharray:none;stroke-opacity:1"
       d="m 56.142167,152.95925 c 0,0 1.011353,0.96078 1.619299,1.95314 0.577813,0.94317 0.839231,1.79023 -0.948581,1.87911 -1.898847,0.0944 -3.647704,-0.58232 -4.195129,-0.83795"
       id="path3"
       sodipodi:nodetypes="cssc" /><path
       style="display:inline;fill:none;fill-opacity:1;fill-rule:nonzero;stroke:#29619b;stroke-width:0.265;stroke-linecap:round;stroke-linejoin:round;stroke-dasharray:none;stroke-opacity:1"
       d="m 69.226122,133.61855 -3.366476,3.53941 c 0,0 -0.256607,0.31033 -0.281795,0.8269 -0.02519,0.51658 0.212725,1.07613 0.540246,1.49111 0.512824,0.64976 1.218198,1.15109 2.074305,1.36522 0.383798,0.096 0.77455,0.13167 1.170995,0.027 0.506969,-0.13389 0.719356,-0.47369 0.719356,-0.47369 l 2.406363,-5.02258"
       id="path5"
       sodipodi:nodetypes="cczasscc" /></g><g
     inkscape:groupmode="layer"
     id="layer2"
     inkscape:label="Layer 2"
     transform="translate(-9.0139201,-115.55935)" /></svg>
